<svg width="23" height="23" viewBox="0 0 23 23" fill="none" xmlns="http://www.w3.org/2000/svg">
<g id="icon_edit">
<g id="group">
<path id="vector" d="M11 2.99609H4C3.46957 2.99609 2.96086 3.20681 2.58579 3.58188C2.21071 3.95695 2 4.46566 2 4.99609V18.9961C2 19.5265 2.21071 20.0352 2.58579 20.4103C2.96086 20.7854 3.46957 20.9961 4 20.9961H18C18.5304 20.9961 19.0391 20.7854 19.4142 20.4103C19.7893 20.0352 20 19.5265 20 18.9961V11.9961" stroke="black" stroke-width="2" stroke-linecap="round" stroke-linejoin="round"/>
<path id="vector_2" d="M17.3751 2.62132C17.7729 2.2235 18.3125 2 18.8751 2C19.4377 2 19.9773 2.2235 20.3751 2.62132C20.7729 3.01914 20.9964 3.55871 20.9964 4.12132C20.9964 4.68393 20.7729 5.2235 20.3751 5.62132L11.3621 14.6353C11.1246 14.8726 10.8313 15.0462 10.5091 15.1403L7.63609 15.9803C7.55005 16.0054 7.45883 16.0069 7.372 15.9847C7.28517 15.9624 7.20592 15.9173 7.14254 15.8539C7.07916 15.7905 7.03398 15.7112 7.01174 15.6244C6.98949 15.5376 6.991 15.4464 7.01609 15.3603L7.85609 12.4873C7.95062 12.1654 8.12463 11.8724 8.36209 11.6353L17.3751 2.62132Z" stroke="black" stroke-width="2" stroke-linecap="round" stroke-linejoin="round"/>
</g>
</g>
</svg>
