<svg width="72" height="72" viewBox="0 0 72 72" fill="none" xmlns="http://www.w3.org/2000/svg">
<g id="icon_check_circle">
<path id="Vector" d="M36 0C16.1179 0 0 16.1179 0 36C0 55.8833 16.1179 72 36 72C55.8833 72 72 55.8833 72 36C72 16.1179 55.8833 0 36 0ZM36 67.5709C18.6311 67.5709 4.5 53.3689 4.5 35.9999C4.5 18.631 18.6311 4.49986 36 4.49986C53.3689 4.49986 67.5 18.6311 67.5 35.9999C67.5 53.3687 53.3689 67.5709 36 67.5709ZM50.3674 22.8274L29.2454 44.082L19.7336 34.5701C18.8549 33.6915 17.4307 33.6915 16.5509 34.5701C15.6723 35.4487 15.6723 36.873 16.5509 37.7516L27.6873 48.8891C28.5659 49.7666 29.9902 49.7666 30.8699 48.8891C30.9712 48.7879 31.0579 48.6776 31.1366 48.5629L53.5511 26.0099C54.4286 25.1313 54.4286 23.7071 53.5511 22.8274C52.6714 21.9487 51.2471 21.9487 50.3674 22.8274Z" fill="#10B981"/>
</g>
</svg>
