<svg width="33" height="33" viewBox="0 0 33 33" fill="none" xmlns="http://www.w3.org/2000/svg">
<g id="icon_hourglass">
<path id="Vector" d="M6.02246 29.9891V28.0761C7.93027 27.5863 23.5176 28.0761 26.9775 28.0761V29.9891C26.9775 31.0822 22.2853 31.9691 16.5 31.9691C10.7146 31.9691 6.02246 31.0822 6.02246 29.9891Z" fill="#8B5738"/>
<path id="Vector_2" d="M16.5 29.9473C22.2865 29.9473 26.9775 29.0608 26.9775 27.9673C26.9775 26.8738 22.2865 25.9873 16.5 25.9873C10.7134 25.9873 6.02246 26.8738 6.02246 27.9673C6.02246 29.0608 10.7134 29.9473 16.5 29.9473Z" fill="#FFB17A"/>
<path id="Vector_3" d="M16.5 29.9473C22.2865 29.9473 26.9775 29.0608 26.9775 27.9673C26.9775 26.8738 22.2865 25.9873 16.5 25.9873C10.7134 25.9873 6.02246 26.8738 6.02246 27.9673C6.02246 29.0608 10.7134 29.9473 16.5 29.9473Z" fill="#CC8552"/>
<path id="Vector_4" opacity="0.75" d="M18.0365 16.8841C17.8432 16.8042 17.7607 16.6469 17.7607 16.4381C17.7607 16.2293 17.8251 16.0797 18.0133 16.0153C19.2018 15.5357 25.1728 13.2489 25.1728 6.12559L25.1264 4.88293L7.85809 4.8623L7.82715 6.16941C7.82715 13.0762 13.7775 15.5151 14.9634 15.9946C15.1568 16.0746 15.2779 16.2061 15.2779 16.4407C15.2779 16.6753 15.1774 16.799 14.9866 16.8635C13.7981 17.343 7.82715 19.6298 7.82715 26.7532C7.84192 27.1446 7.98454 27.5204 8.23318 27.823C8.48181 28.1256 8.82277 28.3385 9.20387 28.4289C10.5032 28.7357 12.9112 29.0915 17.0749 29.0915C20.6611 29.0915 22.6694 28.8311 23.7857 28.5682C24.5798 28.38 25.1496 27.6813 25.1676 26.8666L25.1702 26.7093C25.1728 19.8025 19.225 17.3636 18.0365 16.8841Z" fill="#81D4FA"/>
<path id="Vector_5" opacity="0.39" d="M25.1267 4.88293L7.85844 4.8623L7.83008 6.02762C7.83008 6.02762 9.69922 6.98668 16.5003 6.98668C23.3014 6.98668 25.1705 6.02762 25.1705 6.02762L25.1267 4.88293Z" fill="#1D44B3"/>
<path id="Vector_6" d="M6.02246 4.62531V2.59633C7.87355 2.34883 24.3039 2.59633 26.9775 2.59633V4.62531C26.9775 5.49156 22.2853 6.19281 16.5 6.19281C10.7146 6.19281 6.02246 5.49156 6.02246 4.62531Z" fill="#8B5738"/>
<path id="Vector_7" d="M16.5 4.16625C22.2865 4.16625 26.9775 3.46446 26.9775 2.59875C26.9775 1.73304 22.2865 1.03125 16.5 1.03125C10.7134 1.03125 6.02246 1.73304 6.02246 2.59875C6.02246 3.46446 10.7134 4.16625 16.5 4.16625Z" fill="#CC8552"/>
<path id="Vector_8" d="M23.355 27.9904C23.5922 27.9208 23.7211 27.6526 23.6051 27.4335C22.7955 25.9021 19.3409 25.8583 18.0337 22.9811C17.1623 21.0604 17.1134 18.3894 17.0876 17.2473C17.0515 15.703 17.8223 15.3705 17.8223 15.3705C21.473 13.9009 24.1568 10.5081 24.3115 7.47881C24.327 7.17717 18.5932 9.84295 16.6209 10.2271C12.9755 10.9387 9.34289 10.0028 9.32227 10.1317C10.6732 13.0888 13.3931 14.6331 15.2159 15.3705C15.649 15.5483 16.3657 16.2212 16.3425 18.2425C16.3245 19.6888 16.144 23.5019 13.6509 25.1235C12.7125 25.7345 10.6371 26.6291 10.2504 27.6011C10.1653 27.8151 10.2865 28.0574 10.5108 28.1141C11.2223 28.2946 13.3931 28.6117 16.7679 28.6117C19.4208 28.6143 22.0402 28.3719 23.355 27.9904Z" fill="#FFCA28"/>
<path id="Vector_9" d="M10.924 11.1611C12.3058 11.8752 15.3377 12.8936 16.833 12.378C18.3283 11.8623 24.1111 8.25039 24.3096 7.47953C24.5571 6.52563 17.6065 8.95164 15.1598 9.51883C13.5021 9.90297 10.3361 9.70445 9.62458 9.85399C8.9156 10.0009 9.65294 10.5037 10.924 11.1611Z" fill="#E2A610"/>
<path id="Vector_10" opacity="0.6" d="M11.8056 9.70967C12.1304 10.4676 12.7234 12.1872 11.95 12.4812C11.1765 12.7776 10.0447 11.6794 9.50847 10.5759C8.97222 9.47248 9.0212 8.00811 9.83073 7.9849C10.6403 7.9617 11.375 8.70678 11.8056 9.70967ZM11.0605 20.7801C10.2535 21.7237 9.64769 22.9922 9.87714 24.2168C10.1195 25.5084 11.3209 25.1526 11.7385 24.8252C13.0689 23.7811 12.7053 22.443 13.734 20.94C13.9093 20.6822 14.6415 19.8752 14.5384 19.3673C14.4765 19.0657 13.7753 18.911 12.4991 19.5504C11.9371 19.834 11.4756 20.298 11.0605 20.7801Z" fill="white"/>
</g>
</svg>
