<svg width="35" height="35" viewBox="0 0 35 35" fill="none" xmlns="http://www.w3.org/2000/svg">
<g id="icon_checked">
<path id="Vector" d="M9.84375 4.375C8.39335 4.375 7.00235 4.95117 5.97676 5.97676C4.95117 7.00235 4.375 8.39335 4.375 9.84375V25.1562C4.375 26.6067 4.95117 27.9977 5.97676 29.0232C7.00235 30.0488 8.39335 30.625 9.84375 30.625H25.1562C26.6067 30.625 27.9977 30.0488 29.0232 29.0232C30.0488 27.9977 30.625 26.6067 30.625 25.1562V9.84375C30.625 8.39335 30.0488 7.00235 29.0232 5.97676C27.9977 4.95117 26.6067 4.375 25.1562 4.375H9.84375ZM23.7431 14.9931L16.0869 22.6494C15.9853 22.7512 15.8646 22.832 15.7317 22.8872C15.5988 22.9423 15.4564 22.9707 15.3125 22.9707C15.1686 22.9707 15.0262 22.9423 14.8933 22.8872C14.7604 22.832 14.6397 22.7512 14.5381 22.6494L11.2569 19.3681C11.1552 19.2664 11.0745 19.1457 11.0195 19.0128C10.9644 18.88 10.9361 18.7376 10.9361 18.5938C10.9361 18.4499 10.9644 18.3075 11.0195 18.1747C11.0745 18.0418 11.1552 17.9211 11.2569 17.8194C11.4623 17.614 11.7408 17.4986 12.0312 17.4986C12.1751 17.4986 12.3175 17.5269 12.4503 17.582C12.5832 17.637 12.7039 17.7177 12.8056 17.8194L15.3125 20.3284L22.1944 13.4444C22.3998 13.239 22.6783 13.1236 22.9688 13.1236C23.2592 13.1236 23.5377 13.239 23.7431 13.4444C23.9485 13.6498 24.0639 13.9283 24.0639 14.2188C24.0639 14.5092 23.9485 14.7877 23.7431 14.9931Z" fill="#10B981"/>
</g>
</svg>
