<svg width="50" height="50" viewBox="0 0 50 50" fill="none" xmlns="http://www.w3.org/2000/svg">
<g id="icon_patient">
<rect width="50" height="50" rx="10" fill="#DDEDFE"/>
<path id="Vector" d="M12.5 39.5837V37.5003C12.5 35.2902 13.378 33.1706 14.9408 31.6078C16.5036 30.045 18.6232 29.167 20.8333 29.167H29.1667C31.3768 29.167 33.4964 30.045 35.0592 31.6078C36.622 33.1706 37.5 35.2902 37.5 37.5003V39.5837M31.25 16.667C31.25 18.3246 30.5915 19.9143 29.4194 21.0864C28.2473 22.2585 26.6576 22.917 25 22.917C23.3424 22.917 21.7527 22.2585 20.5806 21.0864C19.4085 19.9143 18.75 18.3246 18.75 16.667C18.75 15.0094 19.4085 13.4197 20.5806 12.2476C21.7527 11.0755 23.3424 10.417 25 10.417C26.6576 10.417 28.2473 11.0755 29.4194 12.2476C30.5915 13.4197 31.25 15.0094 31.25 16.667Z" stroke="#3B82F6" stroke-width="2" stroke-linecap="round"/>
</g>
</svg>
