<svg width="16" height="16" viewBox="0 0 16 16" fill="none" xmlns="http://www.w3.org/2000/svg">
<g id="icon_warning">
<path id="vector" fill-rule="evenodd" clip-rule="evenodd" d="M8.42856 2.74603C8.38417 2.67188 8.32131 2.6105 8.24613 2.56788C8.17094 2.52526 8.08599 2.50286 7.99956 2.50286C7.91314 2.50286 7.82819 2.52526 7.753 2.56788C7.67781 2.6105 7.61495 2.67188 7.57056 2.74603L1.57956 12.743C1.53409 12.8189 1.50957 12.9055 1.50849 12.994C1.50742 13.0824 1.52984 13.1696 1.57345 13.2466C1.61707 13.3235 1.68033 13.3875 1.75677 13.4321C1.83321 13.4766 1.9201 13.5 2.00856 13.5H13.9926C14.0811 13.5002 14.1681 13.4769 14.2447 13.4324C14.3213 13.388 14.3847 13.324 14.4284 13.247C14.4722 13.17 14.4947 13.0828 14.4936 12.9942C14.4926 12.9057 14.4681 12.819 14.4226 12.743L8.42856 2.74603ZM6.28456 1.97603C7.05956 0.680031 8.93856 0.680031 9.71456 1.97503L15.7076 11.971C16.5066 13.304 15.5466 14.999 13.9916 14.999H2.00756C0.452562 15 -0.507438 13.305 0.291562 11.972L6.28456 1.97603ZM8.99956 11.5C8.99956 11.7652 8.89421 12.0196 8.70667 12.2071C8.51913 12.3947 8.26478 12.5 7.99956 12.5C7.73435 12.5 7.47999 12.3947 7.29246 12.2071C7.10492 12.0196 6.99956 11.7652 6.99956 11.5C6.99956 11.2348 7.10492 10.9805 7.29246 10.7929C7.47999 10.6054 7.73435 10.5 7.99956 10.5C8.26478 10.5 8.51913 10.6054 8.70667 10.7929C8.89421 10.9805 8.99956 11.2348 8.99956 11.5ZM8.74956 5.75003C8.74956 5.55112 8.67054 5.36035 8.52989 5.2197C8.38924 5.07905 8.19847 5.00003 7.99956 5.00003C7.80065 5.00003 7.60988 5.07905 7.46923 5.2197C7.32858 5.36035 7.24956 5.55112 7.24956 5.75003V8.75003C7.24956 8.94894 7.32858 9.13971 7.46923 9.28036C7.60988 9.42101 7.80065 9.50003 7.99956 9.50003C8.19847 9.50003 8.38924 9.42101 8.52989 9.28036C8.67054 9.13971 8.74956 8.94894 8.74956 8.75003V5.75003Z" fill="black"/>
</g>
</svg>
