<svg width="20" height="20" viewBox="0 0 20 20" fill="none" xmlns="http://www.w3.org/2000/svg">
<g id="icon_concentric">
<path id="Vector" d="M3.5 10C3.5 8.27609 4.18482 6.62279 5.40381 5.40381C6.62279 4.18482 8.27609 3.5 10 3.5C11.7239 3.5 13.3772 4.18482 14.5962 5.40381C15.8152 6.62279 16.5 8.27609 16.5 10C16.5 11.7239 15.8152 13.3772 14.5962 14.5962C13.3772 15.8152 11.7239 16.5 10 16.5C8.27609 16.5 6.62279 15.8152 5.40381 14.5962C4.18482 13.3772 3.5 11.7239 3.5 10ZM10 2C7.87827 2 5.84344 2.84285 4.34315 4.34315C2.84285 5.84344 2 7.87827 2 10C2 12.1217 2.84285 14.1566 4.34315 15.6569C5.84344 17.1571 7.87827 18 10 18C12.1217 18 14.1566 17.1571 15.6569 15.6569C17.1571 14.1566 18 12.1217 18 10C18 7.87827 17.1571 5.84344 15.6569 4.34315C14.1566 2.84285 12.1217 2 10 2ZM6.5 10C6.5 9.54037 6.59053 9.08525 6.76642 8.66061C6.94231 8.23597 7.20012 7.85013 7.52513 7.52513C7.85013 7.20012 8.23597 6.94231 8.66061 6.76642C9.08525 6.59053 9.54037 6.5 10 6.5C10.4596 6.5 10.9148 6.59053 11.3394 6.76642C11.764 6.94231 12.1499 7.20012 12.4749 7.52513C12.7999 7.85013 13.0577 8.23597 13.2336 8.66061C13.4095 9.08525 13.5 9.54037 13.5 10C13.5 10.9283 13.1313 11.8185 12.4749 12.4749C11.8185 13.1313 10.9283 13.5 10 13.5C9.07174 13.5 8.1815 13.1313 7.52513 12.4749C6.86875 11.8185 6.5 10.9283 6.5 10ZM10 5C8.67392 5 7.40215 5.52678 6.46447 6.46447C5.52678 7.40215 5 8.67392 5 10C5 11.3261 5.52678 12.5979 6.46447 13.5355C7.40215 14.4732 8.67392 15 10 15C11.3261 15 12.5979 14.4732 13.5355 13.5355C14.4732 12.5979 15 11.3261 15 10C15 8.67392 14.4732 7.40215 13.5355 6.46447C12.5979 5.52678 11.3261 5 10 5Z" fill="black"/>
</g>
</svg>
