<svg width="48" height="48" viewBox="0 0 48 48" fill="none" xmlns="http://www.w3.org/2000/svg">
<g id="icon_close">
<g id="group">
<path id="vector" fill-rule="evenodd" clip-rule="evenodd" d="M24.0002 28.2442L34.6062 38.8502C35.169 39.413 35.9323 39.7292 36.7282 39.7292C37.5241 39.7292 38.2874 39.413 38.8502 38.8502C39.413 38.2874 39.7291 37.5241 39.7291 36.7282C39.7291 35.9323 39.413 35.169 38.8502 34.6062L28.2402 24.0002L38.8482 13.3942C39.1267 13.1156 39.3476 12.7848 39.4983 12.4207C39.649 12.0567 39.7265 11.6665 39.7264 11.2725C39.7263 10.8785 39.6487 10.4884 39.4978 10.1244C39.3469 9.76045 39.1259 9.42975 38.8472 9.15122C38.5685 8.87269 38.2377 8.65177 37.8737 8.50108C37.5096 8.35039 37.1195 8.27287 36.7255 8.27297C36.3315 8.27306 35.9414 8.35075 35.5774 8.50162C35.2134 8.65248 34.8827 8.87356 34.6042 9.15222L24.0002 19.7582L13.3942 9.15222C13.1176 8.86556 12.7867 8.63686 12.4207 8.47947C12.0548 8.32207 11.6612 8.23913 11.2628 8.23548C10.8645 8.23183 10.4694 8.30755 10.1007 8.45822C9.7319 8.60889 9.39684 8.83149 9.11503 9.11303C8.83322 9.39458 8.61031 9.72943 8.45929 10.098C8.30827 10.4667 8.23218 10.8617 8.23545 11.26C8.23873 11.6583 8.3213 12.052 8.47835 12.4181C8.6354 12.7842 8.86379 13.1153 9.15018 13.3922L19.7602 24.0002L9.15219 34.6082C8.86579 34.8851 8.6374 35.2162 8.48035 35.5823C8.3233 35.9484 8.24073 36.3421 8.23745 36.7404C8.23418 37.1388 8.31027 37.5338 8.46129 37.9024C8.61231 38.271 8.83522 38.6059 9.11703 38.8874C9.39884 39.169 9.7339 39.3916 10.1027 39.5422C10.4714 39.6929 10.8665 39.7686 11.2648 39.765C11.6632 39.7613 12.0568 39.6784 12.4227 39.521C12.7887 39.3636 13.1196 39.1349 13.3962 38.8482L24.0002 28.2442Z" fill="white"/>
</g>
</g>
</svg>
