<svg width="78" height="78" viewBox="0 0 78 78" fill="none" xmlns="http://www.w3.org/2000/svg">
<g id="icon_video">
<path id="Vector" d="M55.25 34.125V22.75C55.25 21.888 54.9076 21.0614 54.2981 20.4519C53.6886 19.8424 52.862 19.5 52 19.5H13C12.138 19.5 11.3114 19.8424 10.7019 20.4519C10.0924 21.0614 9.75 21.888 9.75 22.75V55.25C9.75 56.112 10.0924 56.9386 10.7019 57.5481C11.3114 58.1576 12.138 58.5 13 58.5H52C52.862 58.5 53.6886 58.1576 54.2981 57.5481C54.9076 56.9386 55.25 56.112 55.25 55.25V43.875L68.25 56.875V21.125L55.25 34.125Z" fill="#404040"/>
</g>
</svg>
