<svg width="26" height="26" viewBox="0 0 26 26" fill="none" xmlns="http://www.w3.org/2000/svg">
<g id="icon_add_user">
<path id="vector" d="M10.4998 0.15625C7.48277 0.15625 5.06177 2.22825 5.06177 6.18825C5.06177 8.77425 6.09177 11.4082 7.65577 13.0312C8.26577 14.6543 7.16577 15.2582 6.93777 15.3442C3.78077 16.5023 0.0927734 18.6022 0.0927734 20.6882V21.4683C0.0927734 24.3113 5.50677 24.9683 10.5298 24.9683C11.6246 24.966 12.7189 24.9246 13.8108 24.8442C12.4436 23.4012 11.6832 21.4881 11.6868 19.5002C11.6868 17.7092 12.2968 16.0682 13.3108 14.7502C13.1608 14.3982 13.1008 13.8433 13.3738 13.0002C14.9288 11.3752 15.9368 8.76425 15.9368 6.18725C15.9368 2.22825 13.5128 0.15725 10.4988 0.15725L10.4998 0.15625ZM19.4998 13.1873C17.8256 13.1873 16.22 13.8523 15.0362 15.0361C13.8523 16.22 13.1873 17.8256 13.1873 19.4998C13.1873 21.1739 13.8523 22.7795 15.0362 23.9634C16.22 25.1472 17.8256 25.8123 19.4998 25.8123C21.174 25.8123 22.7796 25.1472 23.9634 23.9634C25.1472 22.7795 25.8123 21.1739 25.8123 19.4998C25.8123 17.8256 25.1472 16.22 23.9634 15.0361C22.7796 13.8523 21.174 13.1873 19.4998 13.1873ZM18.6248 16.0002H20.3748V18.5942H22.9688V20.4062H20.3748V23.0002H18.6248V20.4062H15.9998V18.5942H18.6248V16.0002Z" fill="white"/>
</g>
</svg>
